%TF.GenerationSoftware,KiCad,Pcbnew,9.0.6*%
%TF.CreationDate,2026-01-14T01:02:26-06:00*%
%TF.ProjectId,motor pcb update 3,6d6f746f-7220-4706-9362-207570646174,rev?*%
%TF.SameCoordinates,Original*%
%TF.FileFunction,Paste,Top*%
%TF.FilePolarity,Positive*%
%FSLAX46Y46*%
G04 Gerber Fmt 4.6, Leading zero omitted, Abs format (unit mm)*
G04 Created by KiCad (PCBNEW 9.0.6) date 2026-01-14 01:02:26*
%MOMM*%
%LPD*%
G01*
G04 APERTURE LIST*
G04 Aperture macros list*
%AMRoundRect*
0 Rectangle with rounded corners*
0 $1 Rounding radius*
0 $2 $3 $4 $5 $6 $7 $8 $9 X,Y pos of 4 corners*
0 Add a 4 corners polygon primitive as box body*
4,1,4,$2,$3,$4,$5,$6,$7,$8,$9,$2,$3,0*
0 Add four circle primitives for the rounded corners*
1,1,$1+$1,$2,$3*
1,1,$1+$1,$4,$5*
1,1,$1+$1,$6,$7*
1,1,$1+$1,$8,$9*
0 Add four rect primitives between the rounded corners*
20,1,$1+$1,$2,$3,$4,$5,0*
20,1,$1+$1,$4,$5,$6,$7,0*
20,1,$1+$1,$6,$7,$8,$9,0*
20,1,$1+$1,$8,$9,$2,$3,0*%
%AMFreePoly0*
4,1,5,0.300000,-0.650000,-0.300000,-0.650000,-0.300000,0.650000,0.300000,0.650000,0.300000,-0.650000,0.300000,-0.650000,$1*%
%AMFreePoly1*
4,1,5,0.299500,-0.650000,-0.300500,-0.650000,-0.300500,0.650000,0.299500,0.650000,0.299500,-0.650000,0.299500,-0.650000,$1*%
G04 Aperture macros list end*
%ADD10C,0.000000*%
%ADD11RoundRect,0.135000X0.135000X0.185000X-0.135000X0.185000X-0.135000X-0.185000X0.135000X-0.185000X0*%
%ADD12RoundRect,0.140000X-0.170000X0.140000X-0.170000X-0.140000X0.170000X-0.140000X0.170000X0.140000X0*%
%ADD13RoundRect,0.218750X-0.218750X-0.256250X0.218750X-0.256250X0.218750X0.256250X-0.218750X0.256250X0*%
%ADD14RoundRect,0.225000X0.225000X0.250000X-0.225000X0.250000X-0.225000X-0.250000X0.225000X-0.250000X0*%
%ADD15R,0.600000X1.200000*%
%ADD16R,3.300000X2.400000*%
%ADD17RoundRect,0.250000X0.250000X0.475000X-0.250000X0.475000X-0.250000X-0.475000X0.250000X-0.475000X0*%
%ADD18RoundRect,0.225000X0.250000X-0.225000X0.250000X0.225000X-0.250000X0.225000X-0.250000X-0.225000X0*%
%ADD19RoundRect,0.140000X0.140000X0.170000X-0.140000X0.170000X-0.140000X-0.170000X0.140000X-0.170000X0*%
%ADD20RoundRect,0.135000X-0.185000X0.135000X-0.185000X-0.135000X0.185000X-0.135000X0.185000X0.135000X0*%
%ADD21RoundRect,0.140000X0.170000X-0.140000X0.170000X0.140000X-0.170000X0.140000X-0.170000X-0.140000X0*%
%ADD22RoundRect,0.225000X-0.250000X0.225000X-0.250000X-0.225000X0.250000X-0.225000X0.250000X0.225000X0*%
%ADD23R,1.500000X0.900000*%
%ADD24R,0.900000X1.500000*%
%ADD25R,0.900000X0.900000*%
%ADD26RoundRect,0.135000X-0.135000X-0.185000X0.135000X-0.185000X0.135000X0.185000X-0.135000X0.185000X0*%
%ADD27R,2.150000X1.000000*%
%ADD28R,2.150000X3.250000*%
%ADD29R,1.500000X0.600000*%
%ADD30R,2.100000X3.300000*%
%ADD31RoundRect,0.218750X0.218750X0.256250X-0.218750X0.256250X-0.218750X-0.256250X0.218750X-0.256250X0*%
%ADD32RoundRect,0.200000X-0.200000X-0.275000X0.200000X-0.275000X0.200000X0.275000X-0.200000X0.275000X0*%
%ADD33FreePoly0,0.000000*%
%ADD34R,0.300000X1.300000*%
%ADD35FreePoly1,0.000000*%
%ADD36RoundRect,0.250000X-0.650000X0.325000X-0.650000X-0.325000X0.650000X-0.325000X0.650000X0.325000X0*%
G04 APERTURE END LIST*
D10*
%TO.C,J1*%
G36*
X67225000Y-136632500D02*
G01*
X66925000Y-136632500D01*
X66925000Y-135332500D01*
X67225000Y-135332500D01*
X67225000Y-136632500D01*
G37*
G36*
X67725000Y-136632500D02*
G01*
X67425000Y-136632500D01*
X67425000Y-135332500D01*
X67725000Y-135332500D01*
X67725000Y-136632500D01*
G37*
G36*
X68225000Y-136632500D02*
G01*
X67925000Y-136632500D01*
X67925000Y-135332500D01*
X68225000Y-135332500D01*
X68225000Y-136632500D01*
G37*
G36*
X68725000Y-136632500D02*
G01*
X68425000Y-136632500D01*
X68425000Y-135332500D01*
X68725000Y-135332500D01*
X68725000Y-136632500D01*
G37*
G36*
X69225000Y-136632500D02*
G01*
X68925000Y-136632500D01*
X68925000Y-135332500D01*
X69225000Y-135332500D01*
X69225000Y-136632500D01*
G37*
G36*
X69725000Y-136632500D02*
G01*
X69425000Y-136632500D01*
X69425000Y-135332500D01*
X69725000Y-135332500D01*
X69725000Y-136632500D01*
G37*
G36*
X70224500Y-136632500D02*
G01*
X69924500Y-136632500D01*
X69924500Y-135332500D01*
X70224500Y-135332500D01*
X70224500Y-136632500D01*
G37*
G36*
X70725000Y-136632500D02*
G01*
X70425000Y-136632500D01*
X70425000Y-135332500D01*
X70725000Y-135332500D01*
X70725000Y-136632500D01*
G37*
G36*
X65925000Y-136632500D02*
G01*
X65625000Y-136632500D01*
X65325000Y-136632500D01*
X65325000Y-135332500D01*
X65625000Y-135332500D01*
X65925000Y-135332500D01*
X65925000Y-136632500D01*
G37*
G36*
X66725000Y-136632500D02*
G01*
X66425000Y-136632500D01*
X66125000Y-136632500D01*
X66125000Y-135332500D01*
X66425000Y-135332500D01*
X66725000Y-135332500D01*
X66725000Y-136632500D01*
G37*
G36*
X71525000Y-136632500D02*
G01*
X71225000Y-136632500D01*
X70925000Y-136632500D01*
X70925000Y-135332500D01*
X71225000Y-135332500D01*
X71525000Y-135332500D01*
X71525000Y-136632500D01*
G37*
G36*
X72325000Y-136632500D02*
G01*
X72025000Y-136632500D01*
X71725000Y-136632500D01*
X71725000Y-135332500D01*
X72025000Y-135332500D01*
X72325000Y-135332500D01*
X72325000Y-136632500D01*
G37*
G36*
X64544500Y-140032500D02*
G01*
X64574500Y-140035500D01*
X64604000Y-140040000D01*
X64633500Y-140045500D01*
X64662500Y-140053000D01*
X64691000Y-140062000D01*
X64719000Y-140072000D01*
X64746500Y-140084000D01*
X64773500Y-140096500D01*
X64800000Y-140111000D01*
X64825500Y-140126500D01*
X64850000Y-140143500D01*
X64874000Y-140161500D01*
X64897000Y-140181000D01*
X64919000Y-140201000D01*
X64939500Y-140222500D01*
X64959500Y-140245000D01*
X64978000Y-140268500D01*
X64995500Y-140292500D01*
X65012000Y-140318000D01*
X65027000Y-140343500D01*
X65040500Y-140370500D01*
X65053000Y-140397500D01*
X65063500Y-140425500D01*
X65073000Y-140454000D01*
X65081500Y-140482500D01*
X65088000Y-140512000D01*
X65093000Y-140541000D01*
X65097000Y-140571000D01*
X65099000Y-140601000D01*
X65100000Y-140630500D01*
X65100000Y-141230500D01*
X65099000Y-141260500D01*
X65097000Y-141290500D01*
X65093000Y-141320000D01*
X65088000Y-141349500D01*
X65081500Y-141378500D01*
X65073000Y-141407500D01*
X65063500Y-141436000D01*
X65053000Y-141463500D01*
X65040500Y-141491000D01*
X65027000Y-141517500D01*
X65012000Y-141543500D01*
X64995500Y-141568500D01*
X64978000Y-141593000D01*
X64959500Y-141616500D01*
X64939500Y-141639000D01*
X64919000Y-141660000D01*
X64897000Y-141680500D01*
X64874000Y-141699500D01*
X64850000Y-141718000D01*
X64825500Y-141734500D01*
X64800000Y-141750500D01*
X64773500Y-141764500D01*
X64746500Y-141777500D01*
X64719000Y-141789000D01*
X64691000Y-141799500D01*
X64662500Y-141808000D01*
X64633500Y-141815500D01*
X64604000Y-141821500D01*
X64574500Y-141826000D01*
X64544500Y-141829000D01*
X64515000Y-141830500D01*
X64485000Y-141830500D01*
X64455000Y-141829000D01*
X64425500Y-141826000D01*
X64395500Y-141821500D01*
X64366500Y-141815500D01*
X64337500Y-141808000D01*
X64309000Y-141799500D01*
X64280500Y-141789000D01*
X64253000Y-141777500D01*
X64226000Y-141764500D01*
X64200000Y-141750500D01*
X64174500Y-141734500D01*
X64149500Y-141718000D01*
X64126000Y-141699500D01*
X64103000Y-141680500D01*
X64081000Y-141660000D01*
X64060000Y-141639000D01*
X64040000Y-141616500D01*
X64021500Y-141593000D01*
X64004000Y-141568500D01*
X63988000Y-141543500D01*
X63973000Y-141517500D01*
X63959500Y-141491000D01*
X63947000Y-141463500D01*
X63936000Y-141436000D01*
X63926500Y-141407500D01*
X63918500Y-141378500D01*
X63912000Y-141349500D01*
X63906500Y-141320000D01*
X63903000Y-141290500D01*
X63900500Y-141260500D01*
X63900000Y-141230500D01*
X63900000Y-140630500D01*
X63900500Y-140601000D01*
X63903000Y-140571000D01*
X63906500Y-140541000D01*
X63912000Y-140512000D01*
X63918500Y-140482500D01*
X63926500Y-140454000D01*
X63936000Y-140425500D01*
X63947000Y-140397500D01*
X63959500Y-140370500D01*
X63973000Y-140343500D01*
X63988000Y-140318000D01*
X64004000Y-140292500D01*
X64021500Y-140268500D01*
X64040000Y-140245000D01*
X64060000Y-140222500D01*
X64081000Y-140201000D01*
X64103000Y-140181000D01*
X64126000Y-140161500D01*
X64149500Y-140143500D01*
X64174500Y-140126500D01*
X64200000Y-140111000D01*
X64226000Y-140096500D01*
X64253000Y-140084000D01*
X64280500Y-140072000D01*
X64309000Y-140062000D01*
X64337500Y-140053000D01*
X64366500Y-140045500D01*
X64395500Y-140040000D01*
X64425500Y-140035500D01*
X64455000Y-140032500D01*
X64485000Y-140031000D01*
X64515000Y-140031000D01*
X64544500Y-140032500D01*
G37*
G36*
X64544500Y-135752500D02*
G01*
X64574500Y-135755500D01*
X64604000Y-135760000D01*
X64633500Y-135766000D01*
X64662500Y-135773000D01*
X64691000Y-135782000D01*
X64719000Y-135792000D01*
X64746500Y-135804000D01*
X64773500Y-135817000D01*
X64800000Y-135831000D01*
X64825500Y-135847000D01*
X64850000Y-135863500D01*
X64874000Y-135881500D01*
X64897000Y-135901000D01*
X64919000Y-135921000D01*
X64939500Y-135942500D01*
X64959500Y-135965000D01*
X64978000Y-135988500D01*
X64995500Y-136013000D01*
X65012000Y-136038000D01*
X65027000Y-136064000D01*
X65040500Y-136090500D01*
X65053000Y-136117500D01*
X65063500Y-136145500D01*
X65073000Y-136174000D01*
X65081500Y-136202500D01*
X65088000Y-136232000D01*
X65093000Y-136261500D01*
X65097000Y-136291000D01*
X65099000Y-136321000D01*
X65100000Y-136351000D01*
X65100000Y-137151000D01*
X65099000Y-137180500D01*
X65097000Y-137210500D01*
X65093000Y-137240000D01*
X65088000Y-137269500D01*
X65081500Y-137299000D01*
X65073000Y-137327500D01*
X65063500Y-137356000D01*
X65053000Y-137384000D01*
X65040500Y-137411000D01*
X65027000Y-137437500D01*
X65012000Y-137463500D01*
X64995500Y-137489000D01*
X64978000Y-137513000D01*
X64959500Y-137536500D01*
X64939500Y-137559000D01*
X64919000Y-137580500D01*
X64897000Y-137600500D01*
X64874000Y-137620000D01*
X64850000Y-137638000D01*
X64825500Y-137655000D01*
X64800000Y-137670500D01*
X64773500Y-137684500D01*
X64746500Y-137697500D01*
X64719000Y-137709500D01*
X64691000Y-137719500D01*
X64662500Y-137728500D01*
X64633500Y-137735500D01*
X64604000Y-137741500D01*
X64574500Y-137746000D01*
X64544500Y-137749000D01*
X64515000Y-137750500D01*
X64485000Y-137750500D01*
X64455000Y-137749000D01*
X64425500Y-137746000D01*
X64395500Y-137741500D01*
X64366500Y-137735500D01*
X64337500Y-137728500D01*
X64309000Y-137719500D01*
X64280500Y-137709500D01*
X64253000Y-137697500D01*
X64226000Y-137684500D01*
X64200000Y-137670500D01*
X64174500Y-137655000D01*
X64149500Y-137638000D01*
X64126000Y-137620000D01*
X64103000Y-137600500D01*
X64081000Y-137580500D01*
X64060000Y-137559000D01*
X64040000Y-137536500D01*
X64021500Y-137513000D01*
X64004000Y-137489000D01*
X63988000Y-137463500D01*
X63973000Y-137437500D01*
X63959500Y-137411000D01*
X63947000Y-137384000D01*
X63936000Y-137356000D01*
X63926500Y-137327500D01*
X63918500Y-137299000D01*
X63912000Y-137269500D01*
X63906500Y-137240000D01*
X63903000Y-137210500D01*
X63900500Y-137180500D01*
X63900000Y-137151000D01*
X63900000Y-136351000D01*
X63900500Y-136321000D01*
X63903000Y-136291000D01*
X63906500Y-136261500D01*
X63912000Y-136232000D01*
X63918500Y-136202500D01*
X63926500Y-136174000D01*
X63936000Y-136145500D01*
X63947000Y-136117500D01*
X63959500Y-136090500D01*
X63973000Y-136064000D01*
X63988000Y-136038000D01*
X64004000Y-136013000D01*
X64021500Y-135988500D01*
X64040000Y-135965000D01*
X64060000Y-135942500D01*
X64081000Y-135921000D01*
X64103000Y-135901000D01*
X64126000Y-135881500D01*
X64149500Y-135863500D01*
X64174500Y-135847000D01*
X64200000Y-135831000D01*
X64226000Y-135817000D01*
X64253000Y-135804000D01*
X64280500Y-135792000D01*
X64309000Y-135782000D01*
X64337500Y-135773000D01*
X64366500Y-135766000D01*
X64395500Y-135760000D01*
X64425500Y-135755500D01*
X64455000Y-135752500D01*
X64485000Y-135751000D01*
X64515000Y-135751000D01*
X64544500Y-135752500D01*
G37*
G36*
X73195000Y-135752500D02*
G01*
X73224500Y-135755500D01*
X73254500Y-135760000D01*
X73283500Y-135766000D01*
X73312500Y-135773000D01*
X73341000Y-135782000D01*
X73369500Y-135792000D01*
X73397000Y-135804000D01*
X73424000Y-135817000D01*
X73450000Y-135831000D01*
X73475500Y-135847000D01*
X73500500Y-135863500D01*
X73524000Y-135881500D01*
X73547000Y-135901000D01*
X73569000Y-135921000D01*
X73590000Y-135942500D01*
X73610000Y-135965000D01*
X73628500Y-135988500D01*
X73646000Y-136013000D01*
X73662000Y-136038000D01*
X73677000Y-136064000D01*
X73690500Y-136090500D01*
X73703000Y-136117500D01*
X73714000Y-136145500D01*
X73723500Y-136174000D01*
X73731500Y-136202500D01*
X73738000Y-136232000D01*
X73743500Y-136261500D01*
X73747000Y-136291000D01*
X73749500Y-136321000D01*
X73750000Y-136351000D01*
X73750000Y-137151000D01*
X73749500Y-137180500D01*
X73747000Y-137210500D01*
X73743500Y-137240000D01*
X73738000Y-137269500D01*
X73731500Y-137299000D01*
X73723500Y-137327500D01*
X73714000Y-137356000D01*
X73703000Y-137384000D01*
X73690500Y-137411000D01*
X73677000Y-137437500D01*
X73662000Y-137463500D01*
X73646000Y-137489000D01*
X73628500Y-137513000D01*
X73610000Y-137536500D01*
X73590000Y-137559000D01*
X73569000Y-137580500D01*
X73547000Y-137600500D01*
X73524000Y-137620000D01*
X73500500Y-137638000D01*
X73475500Y-137655000D01*
X73450000Y-137670500D01*
X73424000Y-137684500D01*
X73397000Y-137697500D01*
X73369500Y-137709500D01*
X73341000Y-137719500D01*
X73312500Y-137728500D01*
X73283500Y-137735500D01*
X73254500Y-137741500D01*
X73224500Y-137746000D01*
X73195000Y-137749000D01*
X73165000Y-137750500D01*
X73135000Y-137750500D01*
X73105500Y-137749000D01*
X73075500Y-137746000D01*
X73046000Y-137741500D01*
X73016500Y-137735500D01*
X72987500Y-137728500D01*
X72959000Y-137719500D01*
X72931000Y-137709500D01*
X72903500Y-137697500D01*
X72876500Y-137684500D01*
X72850000Y-137670500D01*
X72824500Y-137655000D01*
X72800000Y-137638000D01*
X72776000Y-137620000D01*
X72753000Y-137600500D01*
X72731000Y-137580500D01*
X72710500Y-137559000D01*
X72690500Y-137536500D01*
X72672000Y-137513000D01*
X72654500Y-137489000D01*
X72638000Y-137463500D01*
X72623000Y-137437500D01*
X72609500Y-137411000D01*
X72597000Y-137384000D01*
X72586500Y-137356000D01*
X72577000Y-137327500D01*
X72568500Y-137299000D01*
X72562000Y-137269500D01*
X72557000Y-137240000D01*
X72553000Y-137210500D01*
X72551000Y-137180500D01*
X72550000Y-137151000D01*
X72550000Y-136351000D01*
X72551000Y-136321000D01*
X72553000Y-136291000D01*
X72557000Y-136261500D01*
X72562000Y-136232000D01*
X72568500Y-136202500D01*
X72577000Y-136174000D01*
X72586500Y-136145500D01*
X72597000Y-136117500D01*
X72609500Y-136090500D01*
X72623000Y-136064000D01*
X72638000Y-136038000D01*
X72654500Y-136013000D01*
X72672000Y-135988500D01*
X72690500Y-135965000D01*
X72710500Y-135942500D01*
X72731000Y-135921000D01*
X72753000Y-135901000D01*
X72776000Y-135881500D01*
X72800000Y-135863500D01*
X72824500Y-135847000D01*
X72850000Y-135831000D01*
X72876500Y-135817000D01*
X72903500Y-135804000D01*
X72931000Y-135792000D01*
X72959000Y-135782000D01*
X72987500Y-135773000D01*
X73016500Y-135766000D01*
X73046000Y-135760000D01*
X73075500Y-135755500D01*
X73105500Y-135752500D01*
X73135000Y-135751000D01*
X73165000Y-135751000D01*
X73195000Y-135752500D01*
G37*
G36*
X73195000Y-140032500D02*
G01*
X73224500Y-140035500D01*
X73254500Y-140040000D01*
X73283500Y-140045500D01*
X73312500Y-140053000D01*
X73341000Y-140062000D01*
X73369500Y-140072000D01*
X73397000Y-140084000D01*
X73424000Y-140096500D01*
X73450000Y-140111000D01*
X73475500Y-140126500D01*
X73500500Y-140143500D01*
X73524000Y-140161500D01*
X73547000Y-140181000D01*
X73569000Y-140201000D01*
X73590000Y-140222500D01*
X73610000Y-140245000D01*
X73628500Y-140268500D01*
X73646000Y-140292500D01*
X73662000Y-140318000D01*
X73677000Y-140343500D01*
X73690500Y-140370500D01*
X73703000Y-140397500D01*
X73714000Y-140425500D01*
X73723500Y-140454000D01*
X73731500Y-140482500D01*
X73738000Y-140512000D01*
X73743500Y-140541000D01*
X73747000Y-140571000D01*
X73749500Y-140601000D01*
X73750000Y-140630500D01*
X73750000Y-141230500D01*
X73749500Y-141260500D01*
X73747000Y-141290500D01*
X73743500Y-141320000D01*
X73738000Y-141349500D01*
X73731500Y-141378500D01*
X73723500Y-141407500D01*
X73714000Y-141436000D01*
X73703000Y-141463500D01*
X73690500Y-141491000D01*
X73677000Y-141517500D01*
X73662000Y-141543500D01*
X73646000Y-141568500D01*
X73628500Y-141593000D01*
X73610000Y-141616500D01*
X73590000Y-141639000D01*
X73569000Y-141660000D01*
X73547000Y-141680500D01*
X73524000Y-141699500D01*
X73500500Y-141718000D01*
X73475500Y-141734500D01*
X73450000Y-141750500D01*
X73424000Y-141764500D01*
X73397000Y-141777500D01*
X73369500Y-141789000D01*
X73341000Y-141799500D01*
X73312500Y-141808000D01*
X73283500Y-141815500D01*
X73254500Y-141821500D01*
X73224500Y-141826000D01*
X73195000Y-141829000D01*
X73165000Y-141830500D01*
X73135000Y-141830500D01*
X73105500Y-141829000D01*
X73075500Y-141826000D01*
X73046000Y-141821500D01*
X73016500Y-141815500D01*
X72987500Y-141808000D01*
X72959000Y-141799500D01*
X72931000Y-141789000D01*
X72903500Y-141777500D01*
X72876500Y-141764500D01*
X72850000Y-141750500D01*
X72824500Y-141734500D01*
X72800000Y-141718000D01*
X72776000Y-141699500D01*
X72753000Y-141680500D01*
X72731000Y-141660000D01*
X72710500Y-141639000D01*
X72690500Y-141616500D01*
X72672000Y-141593000D01*
X72654500Y-141568500D01*
X72638000Y-141543500D01*
X72623000Y-141517500D01*
X72609500Y-141491000D01*
X72597000Y-141463500D01*
X72586500Y-141436000D01*
X72577000Y-141407500D01*
X72568500Y-141378500D01*
X72562000Y-141349500D01*
X72557000Y-141320000D01*
X72553000Y-141290500D01*
X72551000Y-141260500D01*
X72550000Y-141230500D01*
X72550000Y-140630500D01*
X72551000Y-140601000D01*
X72553000Y-140571000D01*
X72557000Y-140541000D01*
X72562000Y-140512000D01*
X72568500Y-140482500D01*
X72577000Y-140454000D01*
X72586500Y-140425500D01*
X72597000Y-140397500D01*
X72609500Y-140370500D01*
X72623000Y-140343500D01*
X72638000Y-140318000D01*
X72654500Y-140292500D01*
X72672000Y-140268500D01*
X72690500Y-140245000D01*
X72710500Y-140222500D01*
X72731000Y-140201000D01*
X72753000Y-140181000D01*
X72776000Y-140161500D01*
X72800000Y-140143500D01*
X72824500Y-140126500D01*
X72850000Y-140111000D01*
X72876500Y-140096500D01*
X72903500Y-140084000D01*
X72931000Y-140072000D01*
X72959000Y-140062000D01*
X72987500Y-140053000D01*
X73016500Y-140045500D01*
X73046000Y-140040000D01*
X73075500Y-140035500D01*
X73105500Y-140032500D01*
X73135000Y-140031000D01*
X73165000Y-140031000D01*
X73195000Y-140032500D01*
G37*
%TO.C,J2*%
G36*
X48150000Y-136606500D02*
G01*
X47850000Y-136606500D01*
X47850000Y-135306500D01*
X48150000Y-135306500D01*
X48150000Y-136606500D01*
G37*
G36*
X48650000Y-136606500D02*
G01*
X48350000Y-136606500D01*
X48350000Y-135306500D01*
X48650000Y-135306500D01*
X48650000Y-136606500D01*
G37*
G36*
X49150000Y-136606500D02*
G01*
X48850000Y-136606500D01*
X48850000Y-135306500D01*
X49150000Y-135306500D01*
X49150000Y-136606500D01*
G37*
G36*
X49650000Y-136606500D02*
G01*
X49350000Y-136606500D01*
X49350000Y-135306500D01*
X49650000Y-135306500D01*
X49650000Y-136606500D01*
G37*
G36*
X50150000Y-136606500D02*
G01*
X49850000Y-136606500D01*
X49850000Y-135306500D01*
X50150000Y-135306500D01*
X50150000Y-136606500D01*
G37*
G36*
X50650000Y-136606500D02*
G01*
X50350000Y-136606500D01*
X50350000Y-135306500D01*
X50650000Y-135306500D01*
X50650000Y-136606500D01*
G37*
G36*
X51149500Y-136606500D02*
G01*
X50849500Y-136606500D01*
X50849500Y-135306500D01*
X51149500Y-135306500D01*
X51149500Y-136606500D01*
G37*
G36*
X51650000Y-136606500D02*
G01*
X51350000Y-136606500D01*
X51350000Y-135306500D01*
X51650000Y-135306500D01*
X51650000Y-136606500D01*
G37*
G36*
X46850000Y-136606500D02*
G01*
X46550000Y-136606500D01*
X46250000Y-136606500D01*
X46250000Y-135306500D01*
X46550000Y-135306500D01*
X46850000Y-135306500D01*
X46850000Y-136606500D01*
G37*
G36*
X47650000Y-136606500D02*
G01*
X47350000Y-136606500D01*
X47050000Y-136606500D01*
X47050000Y-135306500D01*
X47350000Y-135306500D01*
X47650000Y-135306500D01*
X47650000Y-136606500D01*
G37*
G36*
X52450000Y-136606500D02*
G01*
X52150000Y-136606500D01*
X51850000Y-136606500D01*
X51850000Y-135306500D01*
X52150000Y-135306500D01*
X52450000Y-135306500D01*
X52450000Y-136606500D01*
G37*
G36*
X53250000Y-136606500D02*
G01*
X52950000Y-136606500D01*
X52650000Y-136606500D01*
X52650000Y-135306500D01*
X52950000Y-135306500D01*
X53250000Y-135306500D01*
X53250000Y-136606500D01*
G37*
G36*
X45469500Y-140006500D02*
G01*
X45499500Y-140009500D01*
X45529000Y-140014000D01*
X45558500Y-140019500D01*
X45587500Y-140027000D01*
X45616000Y-140036000D01*
X45644000Y-140046000D01*
X45671500Y-140058000D01*
X45698500Y-140070500D01*
X45725000Y-140085000D01*
X45750500Y-140100500D01*
X45775000Y-140117500D01*
X45799000Y-140135500D01*
X45822000Y-140155000D01*
X45844000Y-140175000D01*
X45864500Y-140196500D01*
X45884500Y-140219000D01*
X45903000Y-140242500D01*
X45920500Y-140266500D01*
X45937000Y-140292000D01*
X45952000Y-140317500D01*
X45965500Y-140344500D01*
X45978000Y-140371500D01*
X45988500Y-140399500D01*
X45998000Y-140428000D01*
X46006500Y-140456500D01*
X46013000Y-140486000D01*
X46018000Y-140515000D01*
X46022000Y-140545000D01*
X46024000Y-140575000D01*
X46025000Y-140604500D01*
X46025000Y-141204500D01*
X46024000Y-141234500D01*
X46022000Y-141264500D01*
X46018000Y-141294000D01*
X46013000Y-141323500D01*
X46006500Y-141352500D01*
X45998000Y-141381500D01*
X45988500Y-141410000D01*
X45978000Y-141437500D01*
X45965500Y-141465000D01*
X45952000Y-141491500D01*
X45937000Y-141517500D01*
X45920500Y-141542500D01*
X45903000Y-141567000D01*
X45884500Y-141590500D01*
X45864500Y-141613000D01*
X45844000Y-141634000D01*
X45822000Y-141654500D01*
X45799000Y-141673500D01*
X45775000Y-141692000D01*
X45750500Y-141708500D01*
X45725000Y-141724500D01*
X45698500Y-141738500D01*
X45671500Y-141751500D01*
X45644000Y-141763000D01*
X45616000Y-141773500D01*
X45587500Y-141782000D01*
X45558500Y-141789500D01*
X45529000Y-141795500D01*
X45499500Y-141800000D01*
X45469500Y-141803000D01*
X45440000Y-141804500D01*
X45410000Y-141804500D01*
X45380000Y-141803000D01*
X45350500Y-141800000D01*
X45320500Y-141795500D01*
X45291500Y-141789500D01*
X45262500Y-141782000D01*
X45234000Y-141773500D01*
X45205500Y-141763000D01*
X45178000Y-141751500D01*
X45151000Y-141738500D01*
X45125000Y-141724500D01*
X45099500Y-141708500D01*
X45074500Y-141692000D01*
X45051000Y-141673500D01*
X45028000Y-141654500D01*
X45006000Y-141634000D01*
X44985000Y-141613000D01*
X44965000Y-141590500D01*
X44946500Y-141567000D01*
X44929000Y-141542500D01*
X44913000Y-141517500D01*
X44898000Y-141491500D01*
X44884500Y-141465000D01*
X44872000Y-141437500D01*
X44861000Y-141410000D01*
X44851500Y-141381500D01*
X44843500Y-141352500D01*
X44837000Y-141323500D01*
X44831500Y-141294000D01*
X44828000Y-141264500D01*
X44825500Y-141234500D01*
X44825000Y-141204500D01*
X44825000Y-140604500D01*
X44825500Y-140575000D01*
X44828000Y-140545000D01*
X44831500Y-140515000D01*
X44837000Y-140486000D01*
X44843500Y-140456500D01*
X44851500Y-140428000D01*
X44861000Y-140399500D01*
X44872000Y-140371500D01*
X44884500Y-140344500D01*
X44898000Y-140317500D01*
X44913000Y-140292000D01*
X44929000Y-140266500D01*
X44946500Y-140242500D01*
X44965000Y-140219000D01*
X44985000Y-140196500D01*
X45006000Y-140175000D01*
X45028000Y-140155000D01*
X45051000Y-140135500D01*
X45074500Y-140117500D01*
X45099500Y-140100500D01*
X45125000Y-140085000D01*
X45151000Y-140070500D01*
X45178000Y-140058000D01*
X45205500Y-140046000D01*
X45234000Y-140036000D01*
X45262500Y-140027000D01*
X45291500Y-140019500D01*
X45320500Y-140014000D01*
X45350500Y-140009500D01*
X45380000Y-140006500D01*
X45410000Y-140005000D01*
X45440000Y-140005000D01*
X45469500Y-140006500D01*
G37*
G36*
X45469500Y-135726500D02*
G01*
X45499500Y-135729500D01*
X45529000Y-135734000D01*
X45558500Y-135740000D01*
X45587500Y-135747000D01*
X45616000Y-135756000D01*
X45644000Y-135766000D01*
X45671500Y-135778000D01*
X45698500Y-135791000D01*
X45725000Y-135805000D01*
X45750500Y-135821000D01*
X45775000Y-135837500D01*
X45799000Y-135855500D01*
X45822000Y-135875000D01*
X45844000Y-135895000D01*
X45864500Y-135916500D01*
X45884500Y-135939000D01*
X45903000Y-135962500D01*
X45920500Y-135987000D01*
X45937000Y-136012000D01*
X45952000Y-136038000D01*
X45965500Y-136064500D01*
X45978000Y-136091500D01*
X45988500Y-136119500D01*
X45998000Y-136148000D01*
X46006500Y-136176500D01*
X46013000Y-136206000D01*
X46018000Y-136235500D01*
X46022000Y-136265000D01*
X46024000Y-136295000D01*
X46025000Y-136325000D01*
X46025000Y-137125000D01*
X46024000Y-137154500D01*
X46022000Y-137184500D01*
X46018000Y-137214000D01*
X46013000Y-137243500D01*
X46006500Y-137273000D01*
X45998000Y-137301500D01*
X45988500Y-137330000D01*
X45978000Y-137358000D01*
X45965500Y-137385000D01*
X45952000Y-137411500D01*
X45937000Y-137437500D01*
X45920500Y-137463000D01*
X45903000Y-137487000D01*
X45884500Y-137510500D01*
X45864500Y-137533000D01*
X45844000Y-137554500D01*
X45822000Y-137574500D01*
X45799000Y-137594000D01*
X45775000Y-137612000D01*
X45750500Y-137629000D01*
X45725000Y-137644500D01*
X45698500Y-137658500D01*
X45671500Y-137671500D01*
X45644000Y-137683500D01*
X45616000Y-137693500D01*
X45587500Y-137702500D01*
X45558500Y-137709500D01*
X45529000Y-137715500D01*
X45499500Y-137720000D01*
X45469500Y-137723000D01*
X45440000Y-137724500D01*
X45410000Y-137724500D01*
X45380000Y-137723000D01*
X45350500Y-137720000D01*
X45320500Y-137715500D01*
X45291500Y-137709500D01*
X45262500Y-137702500D01*
X45234000Y-137693500D01*
X45205500Y-137683500D01*
X45178000Y-137671500D01*
X45151000Y-137658500D01*
X45125000Y-137644500D01*
X45099500Y-137629000D01*
X45074500Y-137612000D01*
X45051000Y-137594000D01*
X45028000Y-137574500D01*
X45006000Y-137554500D01*
X44985000Y-137533000D01*
X44965000Y-137510500D01*
X44946500Y-137487000D01*
X44929000Y-137463000D01*
X44913000Y-137437500D01*
X44898000Y-137411500D01*
X44884500Y-137385000D01*
X44872000Y-137358000D01*
X44861000Y-137330000D01*
X44851500Y-137301500D01*
X44843500Y-137273000D01*
X44837000Y-137243500D01*
X44831500Y-137214000D01*
X44828000Y-137184500D01*
X44825500Y-137154500D01*
X44825000Y-137125000D01*
X44825000Y-136325000D01*
X44825500Y-136295000D01*
X44828000Y-136265000D01*
X44831500Y-136235500D01*
X44837000Y-136206000D01*
X44843500Y-136176500D01*
X44851500Y-136148000D01*
X44861000Y-136119500D01*
X44872000Y-136091500D01*
X44884500Y-136064500D01*
X44898000Y-136038000D01*
X44913000Y-136012000D01*
X44929000Y-135987000D01*
X44946500Y-135962500D01*
X44965000Y-135939000D01*
X44985000Y-135916500D01*
X45006000Y-135895000D01*
X45028000Y-135875000D01*
X45051000Y-135855500D01*
X45074500Y-135837500D01*
X45099500Y-135821000D01*
X45125000Y-135805000D01*
X45151000Y-135791000D01*
X45178000Y-135778000D01*
X45205500Y-135766000D01*
X45234000Y-135756000D01*
X45262500Y-135747000D01*
X45291500Y-135740000D01*
X45320500Y-135734000D01*
X45350500Y-135729500D01*
X45380000Y-135726500D01*
X45410000Y-135725000D01*
X45440000Y-135725000D01*
X45469500Y-135726500D01*
G37*
G36*
X54120000Y-135726500D02*
G01*
X54149500Y-135729500D01*
X54179500Y-135734000D01*
X54208500Y-135740000D01*
X54237500Y-135747000D01*
X54266000Y-135756000D01*
X54294500Y-135766000D01*
X54322000Y-135778000D01*
X54349000Y-135791000D01*
X54375000Y-135805000D01*
X54400500Y-135821000D01*
X54425500Y-135837500D01*
X54449000Y-135855500D01*
X54472000Y-135875000D01*
X54494000Y-135895000D01*
X54515000Y-135916500D01*
X54535000Y-135939000D01*
X54553500Y-135962500D01*
X54571000Y-135987000D01*
X54587000Y-136012000D01*
X54602000Y-136038000D01*
X54615500Y-136064500D01*
X54628000Y-136091500D01*
X54639000Y-136119500D01*
X54648500Y-136148000D01*
X54656500Y-136176500D01*
X54663000Y-136206000D01*
X54668500Y-136235500D01*
X54672000Y-136265000D01*
X54674500Y-136295000D01*
X54675000Y-136325000D01*
X54675000Y-137125000D01*
X54674500Y-137154500D01*
X54672000Y-137184500D01*
X54668500Y-137214000D01*
X54663000Y-137243500D01*
X54656500Y-137273000D01*
X54648500Y-137301500D01*
X54639000Y-137330000D01*
X54628000Y-137358000D01*
X54615500Y-137385000D01*
X54602000Y-137411500D01*
X54587000Y-137437500D01*
X54571000Y-137463000D01*
X54553500Y-137487000D01*
X54535000Y-137510500D01*
X54515000Y-137533000D01*
X54494000Y-137554500D01*
X54472000Y-137574500D01*
X54449000Y-137594000D01*
X54425500Y-137612000D01*
X54400500Y-137629000D01*
X54375000Y-137644500D01*
X54349000Y-137658500D01*
X54322000Y-137671500D01*
X54294500Y-137683500D01*
X54266000Y-137693500D01*
X54237500Y-137702500D01*
X54208500Y-137709500D01*
X54179500Y-137715500D01*
X54149500Y-137720000D01*
X54120000Y-137723000D01*
X54090000Y-137724500D01*
X54060000Y-137724500D01*
X54030500Y-137723000D01*
X54000500Y-137720000D01*
X53971000Y-137715500D01*
X53941500Y-137709500D01*
X53912500Y-137702500D01*
X53884000Y-137693500D01*
X53856000Y-137683500D01*
X53828500Y-137671500D01*
X53801500Y-137658500D01*
X53775000Y-137644500D01*
X53749500Y-137629000D01*
X53725000Y-137612000D01*
X53701000Y-137594000D01*
X53678000Y-137574500D01*
X53656000Y-137554500D01*
X53635500Y-137533000D01*
X53615500Y-137510500D01*
X53597000Y-137487000D01*
X53579500Y-137463000D01*
X53563000Y-137437500D01*
X53548000Y-137411500D01*
X53534500Y-137385000D01*
X53522000Y-137358000D01*
X53511500Y-137330000D01*
X53502000Y-137301500D01*
X53493500Y-137273000D01*
X53487000Y-137243500D01*
X53482000Y-137214000D01*
X53478000Y-137184500D01*
X53476000Y-137154500D01*
X53475000Y-137125000D01*
X53475000Y-136325000D01*
X53476000Y-136295000D01*
X53478000Y-136265000D01*
X53482000Y-136235500D01*
X53487000Y-136206000D01*
X53493500Y-136176500D01*
X53502000Y-136148000D01*
X53511500Y-136119500D01*
X53522000Y-136091500D01*
X53534500Y-136064500D01*
X53548000Y-136038000D01*
X53563000Y-136012000D01*
X53579500Y-135987000D01*
X53597000Y-135962500D01*
X53615500Y-135939000D01*
X53635500Y-135916500D01*
X53656000Y-135895000D01*
X53678000Y-135875000D01*
X53701000Y-135855500D01*
X53725000Y-135837500D01*
X53749500Y-135821000D01*
X53775000Y-135805000D01*
X53801500Y-135791000D01*
X53828500Y-135778000D01*
X53856000Y-135766000D01*
X53884000Y-135756000D01*
X53912500Y-135747000D01*
X53941500Y-135740000D01*
X53971000Y-135734000D01*
X54000500Y-135729500D01*
X54030500Y-135726500D01*
X54060000Y-135725000D01*
X54090000Y-135725000D01*
X54120000Y-135726500D01*
G37*
G36*
X54120000Y-140006500D02*
G01*
X54149500Y-140009500D01*
X54179500Y-140014000D01*
X54208500Y-140019500D01*
X54237500Y-140027000D01*
X54266000Y-140036000D01*
X54294500Y-140046000D01*
X54322000Y-140058000D01*
X54349000Y-140070500D01*
X54375000Y-140085000D01*
X54400500Y-140100500D01*
X54425500Y-140117500D01*
X54449000Y-140135500D01*
X54472000Y-140155000D01*
X54494000Y-140175000D01*
X54515000Y-140196500D01*
X54535000Y-140219000D01*
X54553500Y-140242500D01*
X54571000Y-140266500D01*
X54587000Y-140292000D01*
X54602000Y-140317500D01*
X54615500Y-140344500D01*
X54628000Y-140371500D01*
X54639000Y-140399500D01*
X54648500Y-140428000D01*
X54656500Y-140456500D01*
X54663000Y-140486000D01*
X54668500Y-140515000D01*
X54672000Y-140545000D01*
X54674500Y-140575000D01*
X54675000Y-140604500D01*
X54675000Y-141204500D01*
X54674500Y-141234500D01*
X54672000Y-141264500D01*
X54668500Y-141294000D01*
X54663000Y-141323500D01*
X54656500Y-141352500D01*
X54648500Y-141381500D01*
X54639000Y-141410000D01*
X54628000Y-141437500D01*
X54615500Y-141465000D01*
X54602000Y-141491500D01*
X54587000Y-141517500D01*
X54571000Y-141542500D01*
X54553500Y-141567000D01*
X54535000Y-141590500D01*
X54515000Y-141613000D01*
X54494000Y-141634000D01*
X54472000Y-141654500D01*
X54449000Y-141673500D01*
X54425500Y-141692000D01*
X54400500Y-141708500D01*
X54375000Y-141724500D01*
X54349000Y-141738500D01*
X54322000Y-141751500D01*
X54294500Y-141763000D01*
X54266000Y-141773500D01*
X54237500Y-141782000D01*
X54208500Y-141789500D01*
X54179500Y-141795500D01*
X54149500Y-141800000D01*
X54120000Y-141803000D01*
X54090000Y-141804500D01*
X54060000Y-141804500D01*
X54030500Y-141803000D01*
X54000500Y-141800000D01*
X53971000Y-141795500D01*
X53941500Y-141789500D01*
X53912500Y-141782000D01*
X53884000Y-141773500D01*
X53856000Y-141763000D01*
X53828500Y-141751500D01*
X53801500Y-141738500D01*
X53775000Y-141724500D01*
X53749500Y-141708500D01*
X53725000Y-141692000D01*
X53701000Y-141673500D01*
X53678000Y-141654500D01*
X53656000Y-141634000D01*
X53635500Y-141613000D01*
X53615500Y-141590500D01*
X53597000Y-141567000D01*
X53579500Y-141542500D01*
X53563000Y-141517500D01*
X53548000Y-141491500D01*
X53534500Y-141465000D01*
X53522000Y-141437500D01*
X53511500Y-141410000D01*
X53502000Y-141381500D01*
X53493500Y-141352500D01*
X53487000Y-141323500D01*
X53482000Y-141294000D01*
X53478000Y-141264500D01*
X53476000Y-141234500D01*
X53475000Y-141204500D01*
X53475000Y-140604500D01*
X53476000Y-140575000D01*
X53478000Y-140545000D01*
X53482000Y-140515000D01*
X53487000Y-140486000D01*
X53493500Y-140456500D01*
X53502000Y-140428000D01*
X53511500Y-140399500D01*
X53522000Y-140371500D01*
X53534500Y-140344500D01*
X53548000Y-140317500D01*
X53563000Y-140292000D01*
X53579500Y-140266500D01*
X53597000Y-140242500D01*
X53615500Y-140219000D01*
X53635500Y-140196500D01*
X53656000Y-140175000D01*
X53678000Y-140155000D01*
X53701000Y-140135500D01*
X53725000Y-140117500D01*
X53749500Y-140100500D01*
X53775000Y-140085000D01*
X53801500Y-140070500D01*
X53828500Y-140058000D01*
X53856000Y-140046000D01*
X53884000Y-140036000D01*
X53912500Y-140027000D01*
X53941500Y-140019500D01*
X53971000Y-140014000D01*
X54000500Y-140009500D01*
X54030500Y-140006500D01*
X54060000Y-140005000D01*
X54090000Y-140005000D01*
X54120000Y-140006500D01*
G37*
%TD*%
D11*
%TO.C,R1*%
X51245000Y-118508500D03*
X50225000Y-118508500D03*
%TD*%
D12*
%TO.C,C13*%
X58950000Y-93620000D03*
X58950000Y-94580000D03*
%TD*%
D13*
%TO.C,D3*%
X78212500Y-122000000D03*
X79787500Y-122000000D03*
%TD*%
D14*
%TO.C,C5*%
X62125000Y-94750000D03*
X60575000Y-94750000D03*
%TD*%
D15*
%TO.C,U4*%
X51390000Y-111300000D03*
X50120000Y-111300000D03*
X48850000Y-111300000D03*
X47580000Y-111300000D03*
X47580000Y-117117000D03*
X48850000Y-117117000D03*
X50120000Y-117117000D03*
X51390000Y-117117000D03*
D16*
X49485000Y-114208500D03*
%TD*%
D17*
%TO.C,C7*%
X50215190Y-107800000D03*
X48315190Y-107800000D03*
%TD*%
D18*
%TO.C,C6*%
X50425000Y-124500000D03*
X50425000Y-122950000D03*
%TD*%
D19*
%TO.C,C4*%
X50105668Y-105773169D03*
X49145668Y-105773169D03*
%TD*%
D20*
%TO.C,R6*%
X63500000Y-93640000D03*
X63500000Y-94660000D03*
%TD*%
D21*
%TO.C,C1*%
X44850000Y-97680000D03*
X44850000Y-96720000D03*
%TD*%
D22*
%TO.C,C3*%
X50500000Y-119683500D03*
X50500000Y-121233500D03*
%TD*%
D11*
%TO.C,R5*%
X82202876Y-121961112D03*
X81182876Y-121961112D03*
%TD*%
D22*
%TO.C,C11*%
X54800000Y-93575000D03*
X54800000Y-95125000D03*
%TD*%
D23*
%TO.C,U1*%
X65250000Y-92240000D03*
X65250000Y-93510000D03*
X65250000Y-94780000D03*
X65250000Y-96050000D03*
X65250000Y-97320000D03*
X65250000Y-98590000D03*
X65250000Y-99860000D03*
X65250000Y-101130000D03*
X65250000Y-102400000D03*
X65250000Y-103670000D03*
X65250000Y-104940000D03*
X65250000Y-106210000D03*
X65250000Y-107480000D03*
X65250000Y-108750000D03*
D24*
X67015000Y-110000000D03*
X68285000Y-110000000D03*
X69555000Y-110000000D03*
X70825000Y-110000000D03*
X72095000Y-110000000D03*
X73365000Y-110000000D03*
X74635000Y-110000000D03*
X75905000Y-110000000D03*
X77175000Y-110000000D03*
X78445000Y-110000000D03*
X79715000Y-110000000D03*
X80985000Y-110000000D03*
D23*
X82750000Y-108750000D03*
X82750000Y-107480000D03*
X82750000Y-106210000D03*
X82750000Y-104940000D03*
X82750000Y-103670000D03*
X82750000Y-102400000D03*
X82750000Y-101130000D03*
X82750000Y-99860000D03*
X82750000Y-98590000D03*
X82750000Y-97320000D03*
X82750000Y-96050000D03*
X82750000Y-94780000D03*
X82750000Y-93510000D03*
X82750000Y-92240000D03*
D25*
X72500000Y-99960000D03*
X71100000Y-99960000D03*
X73900000Y-99960000D03*
X71100000Y-101360000D03*
X72500000Y-101360000D03*
X73900000Y-101360000D03*
X71100000Y-98560000D03*
X72500000Y-98560000D03*
X73900000Y-98560000D03*
%TD*%
D26*
%TO.C,R4*%
X59205870Y-104158119D03*
X60225870Y-104158119D03*
%TD*%
D27*
%TO.C,U2*%
X46800000Y-93374250D03*
X46800000Y-95674250D03*
X46800000Y-97974250D03*
D28*
X52600000Y-95674250D03*
%TD*%
D29*
%TO.C,U3*%
X47381912Y-126035472D03*
X47381912Y-127035472D03*
X47381912Y-128035472D03*
X47381912Y-129035472D03*
X47381912Y-130035472D03*
X53381912Y-130035472D03*
X53381912Y-129035472D03*
X53381912Y-128035472D03*
X53381912Y-127035472D03*
X53381912Y-126035472D03*
D30*
X50381912Y-128035472D03*
%TD*%
D14*
%TO.C,C2*%
X47580000Y-118800000D03*
X46030000Y-118800000D03*
%TD*%
D31*
%TO.C,D1*%
X63287500Y-99500000D03*
X61712500Y-99500000D03*
%TD*%
D32*
%TO.C,R7*%
X50124461Y-131590189D03*
X51774461Y-131590189D03*
%TD*%
D33*
%TO.C,J1*%
X65625000Y-135982500D03*
X66425000Y-135982500D03*
D34*
X67575000Y-135982500D03*
X68575000Y-135982500D03*
X69075000Y-135982500D03*
X70074500Y-135982500D03*
D33*
X72025000Y-135982500D03*
D35*
X71225500Y-135982500D03*
D34*
X70575000Y-135982500D03*
X69575000Y-135982500D03*
X68075000Y-135982500D03*
X67075000Y-135982500D03*
%TD*%
D31*
%TO.C,D2*%
X63180465Y-104176789D03*
X61605465Y-104176789D03*
%TD*%
D36*
%TO.C,C12*%
X57000000Y-93475000D03*
X57000000Y-96425000D03*
%TD*%
D26*
%TO.C,R3*%
X59490000Y-99500000D03*
X60510000Y-99500000D03*
%TD*%
D33*
%TO.C,J2*%
X46550000Y-135956500D03*
X47350000Y-135956500D03*
D34*
X48500000Y-135956500D03*
X49500000Y-135956500D03*
X50000000Y-135956500D03*
X50999500Y-135956500D03*
D33*
X52950000Y-135956500D03*
D35*
X52150500Y-135956500D03*
D34*
X51500000Y-135956500D03*
X50500000Y-135956500D03*
X49000000Y-135956500D03*
X48000000Y-135956500D03*
%TD*%
M02*
