%TF.GenerationSoftware,KiCad,Pcbnew,9.0.6*%
%TF.CreationDate,2026-01-14T01:02:26-06:00*%
%TF.ProjectId,motor pcb update 3,6d6f746f-7220-4706-9362-207570646174,rev?*%
%TF.SameCoordinates,Original*%
%TF.FileFunction,Profile,NP*%
%FSLAX46Y46*%
G04 Gerber Fmt 4.6, Leading zero omitted, Abs format (unit mm)*
G04 Created by KiCad (PCBNEW 9.0.6) date 2026-01-14 01:02:26*
%MOMM*%
%LPD*%
G01*
G04 APERTURE LIST*
%TA.AperFunction,Profile*%
%ADD10C,0.050000*%
%TD*%
%TA.AperFunction,Profile*%
%ADD11C,0.000000*%
%TD*%
G04 APERTURE END LIST*
D10*
X35251600Y-144195800D02*
G75*
G02*
X31851600Y-140795800I0J3400000D01*
G01*
X94517000Y-144195800D02*
X35251600Y-144195800D01*
X31851600Y-94205000D02*
G75*
G02*
X35251600Y-90805000I3400000J0D01*
G01*
X97917000Y-140795800D02*
G75*
G02*
X94517000Y-144195800I-3400000J0D01*
G01*
X94517000Y-90805000D02*
G75*
G02*
X97917000Y-94205000I0J-3400000D01*
G01*
X35251600Y-90805000D02*
X94517000Y-90805000D01*
X31851600Y-140795800D02*
X31851600Y-94205000D01*
X97917000Y-94205000D02*
X97917000Y-140795800D01*
D11*
%TA.AperFunction,Profile*%
%TO.C,J1*%
G36*
X66068506Y-136904545D02*
G01*
X66153286Y-136953492D01*
X66222508Y-137022714D01*
X66271455Y-137107494D01*
X66296792Y-137202053D01*
X66296792Y-137299947D01*
X66271455Y-137394506D01*
X66222508Y-137479286D01*
X66153286Y-137548508D01*
X66068506Y-137597455D01*
X65973947Y-137622792D01*
X65876053Y-137622792D01*
X65781494Y-137597455D01*
X65696714Y-137548508D01*
X65627492Y-137479286D01*
X65578545Y-137394506D01*
X65553208Y-137299947D01*
X65553208Y-137202053D01*
X65578545Y-137107494D01*
X65627492Y-137022714D01*
X65696714Y-136953492D01*
X65781494Y-136904545D01*
X65876053Y-136879208D01*
X65973947Y-136879208D01*
X66068506Y-136904545D01*
G37*
%TD.AperFunction*%
%TA.AperFunction,Profile*%
G36*
X71868506Y-136904545D02*
G01*
X71953286Y-136953492D01*
X72022508Y-137022714D01*
X72071455Y-137107494D01*
X72096792Y-137202053D01*
X72096792Y-137299947D01*
X72071455Y-137394506D01*
X72022508Y-137479286D01*
X71953286Y-137548508D01*
X71868506Y-137597455D01*
X71773947Y-137622792D01*
X71676053Y-137622792D01*
X71581494Y-137597455D01*
X71496714Y-137548508D01*
X71427492Y-137479286D01*
X71378545Y-137394506D01*
X71353208Y-137299947D01*
X71353208Y-137202053D01*
X71378545Y-137107494D01*
X71427492Y-137022714D01*
X71496714Y-136953492D01*
X71581494Y-136904545D01*
X71676053Y-136879208D01*
X71773947Y-136879208D01*
X71868506Y-136904545D01*
G37*
%TD.AperFunction*%
%TA.AperFunction,Profile*%
%TO.C,J2*%
G36*
X46993506Y-136878545D02*
G01*
X47078286Y-136927492D01*
X47147508Y-136996714D01*
X47196455Y-137081494D01*
X47221792Y-137176053D01*
X47221792Y-137273947D01*
X47196455Y-137368506D01*
X47147508Y-137453286D01*
X47078286Y-137522508D01*
X46993506Y-137571455D01*
X46898947Y-137596792D01*
X46801053Y-137596792D01*
X46706494Y-137571455D01*
X46621714Y-137522508D01*
X46552492Y-137453286D01*
X46503545Y-137368506D01*
X46478208Y-137273947D01*
X46478208Y-137176053D01*
X46503545Y-137081494D01*
X46552492Y-136996714D01*
X46621714Y-136927492D01*
X46706494Y-136878545D01*
X46801053Y-136853208D01*
X46898947Y-136853208D01*
X46993506Y-136878545D01*
G37*
%TD.AperFunction*%
%TA.AperFunction,Profile*%
G36*
X52793506Y-136878545D02*
G01*
X52878286Y-136927492D01*
X52947508Y-136996714D01*
X52996455Y-137081494D01*
X53021792Y-137176053D01*
X53021792Y-137273947D01*
X52996455Y-137368506D01*
X52947508Y-137453286D01*
X52878286Y-137522508D01*
X52793506Y-137571455D01*
X52698947Y-137596792D01*
X52601053Y-137596792D01*
X52506494Y-137571455D01*
X52421714Y-137522508D01*
X52352492Y-137453286D01*
X52303545Y-137368506D01*
X52278208Y-137273947D01*
X52278208Y-137176053D01*
X52303545Y-137081494D01*
X52352492Y-136996714D01*
X52421714Y-136927492D01*
X52506494Y-136878545D01*
X52601053Y-136853208D01*
X52698947Y-136853208D01*
X52793506Y-136878545D01*
G37*
%TD.AperFunction*%
%TD*%
M02*
